<svg width="172" height="55" viewBox="0 0 172 55" fill="none" xmlns="http://www.w3.org/2000/svg">
<path d="M61.1132 12.9626L69.0602 24.0722L76.9672 12.9626H80.4415L70.8972 26.4385L81.2002 41.0374H77.7259L69.0602 28.9652L60.3944 41.0374H57L67.2631 26.5588L57.7188 12.9626H61.1132Z" fill="#EBFF00"/>
<path d="M95.0964 28.1631H88.7069V41.0374H85.8317V12.9626H88.7069V25.5562H95.0964L104.561 12.9626H107.756L97.3727 26.5989L108.355 41.0374H104.96L95.0964 28.1631Z" fill="#EBFF00"/>
<path d="M142.768 26.9599C142.768 30.6765 141.451 33.6043 138.815 35.7433C136.206 37.8556 132.545 38.9786 127.833 39.1123V42H125.077V39.1123C120.365 38.9519 116.691 37.8155 114.056 35.7032C111.447 33.5909 110.142 30.6765 110.142 26.9599C110.142 23.2433 111.447 20.3289 114.056 18.2166C116.691 16.1043 120.365 14.9679 125.077 14.8075V12H127.833V14.8075C132.519 14.9679 136.179 16.1176 138.815 18.2567C141.451 20.369 142.768 23.2701 142.768 26.9599ZM127.833 36.746C131.693 36.5856 134.675 35.6631 136.778 33.9786C138.881 32.2941 139.933 29.9545 139.933 26.9599C139.933 23.9652 138.868 21.6257 136.738 19.9412C134.635 18.2567 131.667 17.3476 127.833 17.2139V36.746ZM112.977 26.9599C112.977 29.9545 114.029 32.2941 116.132 33.9786C118.262 35.6364 121.244 36.5588 125.077 36.746V17.2139C121.191 17.3743 118.195 18.2968 116.092 19.9813C114.016 21.639 112.977 23.9652 112.977 26.9599Z" fill="#EBFF00"/>
<path d="M158.742 28.1631H152.352V41.0374H149.477V12.9626H152.352V25.5562H158.742L168.206 12.9626H171.401L161.018 26.5989L172 41.0374H168.606L158.742 28.1631Z" fill="#EBFF00"/>
<path d="M50 0.999999C50 0.447714 50.4477 0 51 0C51.5523 0 52 0.447715 52 1V54C52 54.5523 51.5523 55 51 55C50.4477 55 50 54.5523 50 54V0.999999Z" fill="#EBFF00"/>
<path d="M29.73 9H27V23.1177H29.73V17.2942H31.8182L36.098 23.1177H39.3345L34.077 15.853L39.1163 9H36.0013L31.8535 14.7478H29.73V9Z" fill="#EBFF00"/>
<path fill-rule="evenodd" clip-rule="evenodd" d="M5.13647 43.0015C6.36145 43.9424 7.96204 44.4673 9.87097 44.6426V46H13.3534V44.6467C15.2599 44.4805 16.8567 43.9602 18.0729 43.0164C19.5015 41.9077 20.2059 40.3611 20.2059 38.4824C20.2059 36.6111 19.4921 35.0723 18.0548 33.9663C16.8406 33.0137 15.2505 32.4824 13.3534 32.3054V31H9.87097V32.3047C7.96204 32.4797 6.36145 33.0049 5.13647 33.9458L5.13306 33.9485C3.70435 35.0571 3 36.6035 3 38.4824C3 40.3518 3.70618 41.8914 5.13306 42.9988L5.13647 43.0015ZM16.668 38.4648C16.668 39.4294 16.3352 40.1052 15.6975 40.6018C15.1747 41.0071 14.4119 41.3135 13.3534 41.469V35.4988C14.3879 35.6562 15.1462 35.9658 15.6786 36.3804L15.6838 36.3843L15.6891 36.3884C16.338 36.8779 16.668 37.5349 16.668 38.4648ZM7.52209 40.5981C6.88513 40.0999 6.55627 39.4297 6.55627 38.4824C6.55627 37.5142 6.88562 36.8472 7.50537 36.3652C8.03979 35.9575 8.81067 35.6511 9.87097 35.4958V41.467C8.83386 41.3115 8.06665 41.0071 7.52209 40.5981Z" fill="#EBFF00"/>
<path fill-rule="evenodd" clip-rule="evenodd" d="M0 8C0 6.34326 1.34314 5 3 5H42C43.6569 5 45 6.34326 45 8V47C45 48.6567 43.6569 50 42 50H3C1.34314 50 0 48.6567 0 47V8ZM44 27V8C44 6.89551 43.1046 6 42 6H23V27H44ZM22 28H1V47C1 48.1045 1.89539 49 3 49H22V28ZM8.34839 9H5.3009L9.72461 15.8684L5 23.1177H8.05225L11.2949 18.2012L14.5538 23.1177H17.6545L12.9158 15.7944L17.3253 9H14.2397L11.2941 13.4788L8.34839 9ZM29.73 31H27V45.1177H29.73V39.2942H31.8182L36.098 45.1177H39.3345L34.077 37.853L39.1163 31H36.0013L31.8535 36.7478H29.73V31Z" fill="#EBFF00"/>
</svg>
